<svg width="359" height="390" viewBox="0 0 359 390" fill="none" xmlns="http://www.w3.org/2000/svg">
<path d="M217.606 61.1685C226.81 58.8806 236.337 58.1893 245.774 59.1245L246.922 59.1805C260.558 59.6285 269.322 60.9725 281.698 66.3205C298.162 73.3765 314.29 86.0325 330.474 105.408C372.642 155.836 366.678 268.509 315.27 333.665C311.91 337.921 301.27 351.865 301.83 351.137C297.733 356.59 293.34 361.816 288.67 366.789C275.006 381.041 260.11 388.32 240.51 388.684C226.79 388.964 217.074 386.361 203.634 380.481L200.778 379.221C191.594 375.189 187.394 374.013 180.086 374.013C172.162 374.013 167.57 375.273 157.714 379.557L154.886 380.789C142.454 386.137 133.746 388.685 121.566 389.189C89.1423 390.393 70.4103 372.529 42.5223 331.369C0.242344 269.209 -15.4937 178.545 18.4423 118.569C38.6863 82.7285 75.2824 60.1045 114.986 59.4885C129.35 59.2365 141.362 62.4845 158.582 69.4285C170.454 74.1885 173.786 75.4485 174.934 75.6725C182.046 66.8525 187.086 59.4885 190.054 53.6925C195.99 42.1845 201.954 27.4565 207.862 9.59249C208.443 7.8459 209.363 6.23086 210.568 4.83955C211.773 3.44825 213.24 2.30794 214.886 1.48372C216.532 0.659511 218.324 0.167537 220.16 0.0358939C221.996 -0.0957493 223.84 0.135516 225.586 0.716484C227.333 1.29745 228.948 2.21675 230.339 3.42188C231.731 4.62701 232.871 6.09438 233.695 7.74021C234.519 9.38603 235.011 11.1781 235.143 13.014C235.275 14.85 235.043 16.6939 234.462 18.4405C228.946 35.0165 223.346 49.2405 217.606 61.1685ZM195.066 95.3285C188.71 103.112 181.15 111.68 172.358 121.061C171.101 122.403 169.591 123.484 167.916 124.243C166.24 125.001 164.432 125.423 162.594 125.482C160.756 125.542 158.923 125.239 157.202 124.591C155.481 123.943 153.904 122.962 152.562 121.705C151.22 120.447 150.139 118.937 149.38 117.262C148.622 115.587 148.2 113.778 148.14 111.94C148.081 110.102 148.384 108.27 149.032 106.548C149.68 104.827 150.661 103.251 151.918 101.908L157.294 96.1125C145.03 91.2125 130.498 84.4365 115.434 84.6885C84.6343 85.1645 56.2423 102.889 40.3383 130.973C8.36235 187.533 32.1623 271.337 63.3543 317.201C78.5863 339.657 96.7584 364.885 120.642 363.989C143.602 363.065 152.282 348.813 180.086 348.813C207.89 348.813 215.646 363.989 240.006 363.485C264.702 363.009 273.158 346.405 295.502 318.041C342.71 258.204 342.71 159.337 311.154 121.565C279.57 83.8205 256.61 84.7725 244.794 84.3245C226.65 82.4485 209.094 89.8125 195.066 95.3285Z" fill="#0066CC"/>
</svg>
