<svg width="9629" height="1429" viewBox="0 0 9629 1429" fill="none" xmlns="http://www.w3.org/2000/svg">
<path d="M6 970.5V1217C6 1397.5 203.2 1536.8 628 1290C1159 981.501 1759 1058.5 2014.5 1165.5C2219.42 1251.32 2698.5 1575 3390.5 1071.5C4082.5 568.001 4650.04 957.655 4774 1031.5C4938.5 1129.5 5062.5 1290 5512.5 1290H9623.5" stroke="#0066CC" stroke-width="10" stroke-linecap="round" stroke-linejoin="round"/>
<path d="M11 11V1179.96C11 1360.45 209.767 1499.75 634.422 1252.96C1165.24 944.465 1765.04 1021.46 2020.45 1128.46C2225.3 1214.27 2704.22 1537.95 3395.98 1034.46C4087.75 530.978 4655.1 920.62 4779.01 994.464C4943.46 1092.46 5107.4 1252.96 5557.25 1252.96H7747" stroke="#FF7A00" stroke-width="22" stroke-linecap="round" stroke-linejoin="round"/>
</svg>
