<svg width="150" height="150" viewBox="0 0 150 150" fill="none" xmlns="http://www.w3.org/2000/svg">
<g clip-path="url(#clip0_609_131)">
<path d="M50.0004 150C63.8005 150 75.0008 138.8 75.0008 125V100H50.0004C36.2003 100 25 111.2 25 125C25 138.8 36.2003 150 50.0004 150Z" fill="#0ACF83"/>
<path d="M25 75.0002C25 61.2002 36.2003 50 50.0004 50H75.0008V99.9998H50.0004C36.2003 100 25 88.8002 25 75.0002Z" fill="#A259FF"/>
<path d="M25 25.0002C25 11.2002 36.2003 0 50.0004 0H75.0008V49.9998H50.0004C36.2003 49.9998 25 38.8002 25 25.0002Z" fill="#F24E1E"/>
<path d="M75 0H100C113.8 0 125.001 11.2002 125.001 25.0002C125.001 38.8002 113.8 49.9998 100 49.9998H75V0Z" fill="#FF7262"/>
<path d="M125.001 75.0002C125.001 88.8002 113.8 100 100 100C86.2003 100 75 88.8002 75 75.0002C75 61.2002 86.2003 50 100 50C113.8 50 125.001 61.2002 125.001 75.0002Z" fill="#1ABCFE"/>
</g>
<defs>
<clipPath id="clip0_609_131">
<rect width="150" height="150" fill="white"/>
</clipPath>
</defs>
</svg>
