<svg width="30" height="30" viewBox="0 0 30 30" fill="none" xmlns="http://www.w3.org/2000/svg">
<path fill-rule="evenodd" clip-rule="evenodd" d="M14.995 0C11.434 0.00190514 7.98971 1.30242 5.27806 3.66901C2.56642 6.03559 0.764251 9.31392 0.193789 12.9178C-0.376672 16.5217 0.32177 20.2161 2.16424 23.3404C4.00672 26.4648 6.87306 28.8153 10.2508 29.9718C10.9959 30.1144 11.2766 29.6381 11.2766 29.2332C11.2766 28.8283 11.2617 27.6543 11.2567 26.3708C7.08377 27.3003 6.20198 24.555 6.20198 24.555C5.52139 22.7723 4.53776 22.3037 4.53776 22.3037C3.17657 21.3513 4.63961 21.3691 4.63961 21.3691C6.14734 21.4786 6.93971 22.9557 6.93971 22.9557C8.27606 25.3063 10.4495 24.6263 11.3039 24.229C11.4381 23.2333 11.828 22.5559 12.2578 22.1713C8.92435 21.7842 5.42203 20.465 5.42203 14.572C5.40137 13.0437 5.95452 11.5658 6.96703 10.4439C6.81303 10.0568 6.29885 8.49315 7.11357 6.36922C7.11357 6.36922 8.37293 5.95666 11.2394 7.94561C13.698 7.25627 16.2921 7.25627 18.7507 7.94561C21.6147 5.95666 22.8715 6.36922 22.8715 6.36922C23.6887 8.48805 23.1746 10.0517 23.0206 10.4439C24.0363 11.5659 24.5906 13.0465 24.568 14.5771C24.568 20.4829 21.0583 21.7842 17.7199 22.1637C18.2564 22.6424 18.7358 23.5771 18.7358 25.0134C18.7358 27.0711 18.7184 28.7264 18.7184 29.2332C18.7184 29.6432 18.9892 30.122 19.7492 29.9718C23.1273 28.8152 25.994 26.4642 27.8364 23.3393C29.6788 20.2144 30.3769 16.5195 29.8058 12.9153C29.2347 9.31107 27.4316 6.03271 24.7191 3.66653C22.0066 1.30036 18.5615 0.000697569 15 0H14.995Z" fill="#191717"/>
</svg>
