<svg width="150" height="150" viewBox="0 0 150 150" fill="none" xmlns="http://www.w3.org/2000/svg">
<g clip-path="url(#clip0_609_133)">
<path fill-rule="evenodd" clip-rule="evenodd" d="M75.0008 3.125C57.196 3.13424 39.9749 9.44036 26.417 20.9158C12.8592 32.3912 3.84851 48.2876 0.996268 65.7625C-1.85597 83.2374 1.63616 101.151 10.8483 116.301C20.0605 131.451 34.3919 142.849 51.2799 148.456C55.0057 149.148 56.4091 146.838 56.4091 144.875C56.4091 142.912 56.3346 137.219 56.3097 130.995C35.4453 135.502 31.0365 122.191 31.0365 122.191C27.6336 113.547 22.7156 111.274 22.7156 111.274C15.9098 106.656 23.2248 106.742 23.2248 106.742C30.7633 107.273 34.7251 114.436 34.7251 114.436C41.4067 125.833 52.2735 122.536 56.5457 120.61C57.2163 115.782 59.1662 112.497 61.3147 110.632C44.6481 108.755 27.1369 102.359 27.1369 73.7839C27.0336 66.3732 29.7993 59.2066 34.8617 53.7668C34.0917 51.8898 31.5209 44.3077 35.5944 34.0089C35.5944 34.0089 41.891 32.0085 56.2228 41.6528C68.5158 38.3101 81.4858 38.3101 93.7787 41.6528C108.098 32.0085 114.382 34.0089 114.382 34.0089C118.468 44.283 115.897 51.8651 115.127 53.7668C120.206 59.2074 122.977 66.3866 122.865 73.8086C122.865 102.445 105.316 108.755 88.6247 110.595C91.3072 112.917 93.7042 117.449 93.7042 124.413C93.7042 134.391 93.6173 142.418 93.6173 144.875C93.6173 146.863 94.9709 149.185 98.7712 148.456C115.661 142.848 129.994 131.448 139.206 116.296C148.418 101.144 151.908 83.2269 149.053 65.7503C146.197 48.2738 137.182 32.3772 123.62 20.9038C110.058 9.43035 92.8325 3.12838 75.0256 3.125H75.0008Z" fill="#191717"/>
<path d="M28.4023 110.2C28.2408 110.57 27.6447 110.682 27.1603 110.422C26.676 110.163 26.3159 109.681 26.4897 109.298C26.6636 108.916 27.2473 108.817 27.7317 109.076C28.216 109.336 28.5886 109.829 28.4023 110.2Z" fill="#191717"/>
<path d="M31.4462 113.571C31.189 113.699 30.8947 113.735 30.6138 113.672C30.3329 113.609 30.0827 113.451 29.9062 113.225C29.4218 112.706 29.3224 111.99 29.695 111.669C30.0676 111.348 30.7383 111.496 31.2226 112.015C31.707 112.533 31.8187 113.25 31.4462 113.571Z" fill="#191717"/>
<path d="M34.4005 117.856C33.941 118.177 33.1585 117.856 32.7238 117.214C32.6036 117.098 32.508 116.96 32.4427 116.807C32.3774 116.655 32.3438 116.49 32.3438 116.324C32.3438 116.158 32.3774 115.994 32.4427 115.841C32.508 115.689 32.6036 115.551 32.7238 115.435C33.1833 115.127 33.9658 115.435 34.4005 116.065C34.8351 116.695 34.8476 117.535 34.4005 117.856V117.856Z" fill="#191717"/>
<path d="M38.4146 122.005C38.0047 122.462 37.1727 122.338 36.4896 121.721C35.8065 121.103 35.645 120.264 36.0549 119.819C36.4647 119.375 37.2968 119.498 38.0047 120.103C38.7126 120.708 38.8492 121.56 38.4146 122.005V122.005Z" fill="#191717"/>
<path d="M44.0396 124.426C43.8533 125.006 43.0088 125.266 42.1642 125.019C41.3197 124.772 40.7609 124.08 40.9223 123.487C41.0838 122.895 41.9407 122.623 42.7976 122.895C43.6546 123.166 44.201 123.821 44.0396 124.426Z" fill="#191717"/>
<path d="M50.1736 124.845C50.1736 125.45 49.4781 125.968 48.584 125.981C47.6898 125.993 46.957 125.499 46.957 124.894C46.957 124.289 47.6525 123.77 48.5467 123.758C49.4409 123.746 50.1736 124.227 50.1736 124.845Z" fill="#191717"/>
<path d="M55.8879 123.895C55.9997 124.501 55.3787 125.13 54.4846 125.279C53.5904 125.427 52.808 125.069 52.6962 124.476C52.5844 123.883 53.2302 123.241 54.0996 123.08C54.9689 122.92 55.7762 123.29 55.8879 123.895Z" fill="#191717"/>
</g>
<defs>
<clipPath id="clip0_609_133">
<rect width="150" height="150" fill="white"/>
</clipPath>
</defs>
</svg>
