<svg width="30" height="30" viewBox="0 0 30 30" fill="none" xmlns="http://www.w3.org/2000/svg">
<circle cx="15" cy="15" r="15" fill="#FEE500"/>
<path d="M15.0397 7.24219C10.3729 7.24219 6.60938 10.253 6.60938 13.9082C6.60938 16.2807 8.17502 18.3582 10.5235 19.5445L9.72861 22.5132C9.71363 22.5577 9.71132 22.6054 9.72196 22.6512C9.73259 22.6969 9.75575 22.7388 9.78883 22.7721C9.83707 22.8146 9.89914 22.8382 9.96346 22.8383C10.0168 22.834 10.0674 22.813 10.108 22.7781L13.5283 20.4718C14.0332 20.5415 14.5421 20.5777 15.0518 20.5802C19.7126 20.5802 23.4822 17.5694 23.4822 13.9082C23.4822 10.247 19.7005 7.24219 15.0397 7.24219Z" fill="#392020"/>
<path d="M18.0523 12.422C18.0487 12.2872 18.096 12.1561 18.1848 12.0547C18.275 11.9726 18.3908 11.9242 18.5126 11.9176C18.6343 11.9111 18.7546 11.9467 18.8532 12.0185C18.9387 12.0885 18.9963 12.1867 19.0158 12.2955C19.0188 12.3376 19.0188 12.3799 19.0158 12.422V13.8973L20.5393 12.1389C20.598 12.0789 20.6603 12.0226 20.7259 11.9703C20.7878 11.9335 20.8587 11.9147 20.9307 11.9161C21.0359 11.9155 21.1389 11.947 21.2257 12.0064C21.2667 12.034 21.3017 12.0696 21.3286 12.111C21.3555 12.1523 21.3737 12.1987 21.3823 12.2473C21.3847 12.2592 21.3847 12.2716 21.3823 12.2835C21.3794 12.2974 21.3794 12.3117 21.3823 12.3256C21.3821 12.389 21.3655 12.4512 21.3341 12.5063C21.3022 12.5646 21.2638 12.619 21.2197 12.6688L20.2201 13.7648L21.4245 15.6315V15.6917C21.487 15.778 21.5357 15.8735 21.569 15.9748V16.0048C21.5759 16.0746 21.5659 16.1451 21.5397 16.2101C21.5134 16.2751 21.4718 16.3328 21.4184 16.3782C21.318 16.4541 21.1951 16.4944 21.0692 16.4926C20.9855 16.4961 20.9024 16.4773 20.8283 16.4384C20.7481 16.3846 20.682 16.3123 20.6356 16.2276L19.5156 14.4211L18.9797 14.9812V15.9868C18.9833 16.1215 18.936 16.2527 18.8472 16.3541C18.7996 16.4006 18.743 16.4369 18.6808 16.4607C18.6187 16.4846 18.5524 16.4954 18.4859 16.4926C18.3748 16.495 18.2663 16.4588 18.1788 16.3902C18.0937 16.3224 18.036 16.2263 18.0162 16.1193C18.0102 16.0753 18.0102 16.0307 18.0162 15.9868L18.0523 12.422Z" fill="#FEE500"/>
<path d="M14.8404 12.4224C14.8343 12.2873 14.8819 12.1552 14.9728 12.0551C15.0191 12.0084 15.0746 11.972 15.1358 11.9481C15.197 11.9243 15.2625 11.9135 15.3281 11.9165C15.4409 11.9152 15.551 11.9512 15.6412 12.0189C15.7249 12.0895 15.7804 12.1878 15.7978 12.2959C15.8037 12.3378 15.8037 12.3804 15.7978 12.4224V15.5898H17.4538C17.5686 15.5883 17.6814 15.6196 17.779 15.6801C17.8228 15.7071 17.8605 15.7431 17.8895 15.7856C17.9186 15.8282 17.9383 15.8763 17.9476 15.927C17.9476 15.927 17.9476 15.9872 17.9476 16.0173C17.9504 16.0773 17.9388 16.137 17.9136 16.1915C17.8885 16.246 17.8505 16.2937 17.803 16.3305C17.6981 16.4065 17.5713 16.4466 17.4417 16.4448H15.4064C15.2768 16.4532 15.1479 16.4194 15.0391 16.3485C14.9417 16.2758 14.8769 16.1676 14.8584 16.0475C14.854 15.9813 14.854 15.9149 14.8584 15.8487L14.8404 12.4224Z" fill="#FEE500"/>
<path d="M12.1904 12.2297C12.2169 12.1306 12.2791 12.0448 12.3651 11.9888C12.4566 11.9369 12.561 11.9119 12.6662 11.9166H12.895C13.0066 11.9126 13.1171 11.9397 13.2141 11.9949C13.317 12.064 13.3901 12.1693 13.4189 12.2899L14.6232 15.6922C14.6544 15.781 14.6806 15.8715 14.7015 15.9632C14.7035 16.0013 14.7035 16.0395 14.7015 16.0776C14.7035 16.1363 14.6927 16.1947 14.6698 16.2488C14.647 16.3029 14.6125 16.3513 14.569 16.3907C14.5268 16.434 14.4762 16.468 14.4202 16.4908C14.3643 16.5136 14.3042 16.5246 14.2438 16.5232C14.151 16.5324 14.0577 16.5101 13.979 16.4599C13.9004 16.4096 13.8409 16.3344 13.8103 16.2462L13.5574 15.5056H11.9737L11.7207 16.2462C11.6908 16.3361 11.6307 16.4128 11.5505 16.4633C11.4704 16.5139 11.3752 16.535 11.2812 16.5232C11.1793 16.5259 11.0796 16.494 10.9981 16.4328C10.9188 16.3697 10.8652 16.2798 10.8476 16.18C10.8444 16.1459 10.8444 16.1116 10.8476 16.0776C10.8373 16.0178 10.8373 15.9567 10.8476 15.897C10.8476 15.8307 10.8898 15.7584 10.9138 15.6922L12.1904 12.2297ZM12.7926 13.0186L12.2205 14.8251H13.3586L12.7926 13.0186Z" fill="#FEE500"/>
<path d="M9.56182 12.8515H8.6405C8.52631 12.8549 8.41353 12.8256 8.31533 12.7672C8.27173 12.7399 8.23425 12.7039 8.20524 12.6614C8.17622 12.6189 8.1563 12.5709 8.14673 12.5203C8.1438 12.4883 8.1438 12.4561 8.14673 12.424C8.14386 12.3641 8.1555 12.3043 8.18066 12.2497C8.20582 12.1952 8.24375 12.1476 8.29124 12.1109C8.39623 12.0349 8.52294 11.9947 8.65255 11.9964H11.4285C11.5436 11.9924 11.6572 12.024 11.7537 12.0868C11.7983 12.1129 11.8366 12.1486 11.8658 12.1913C11.8949 12.234 11.9142 12.2826 11.9223 12.3337C11.9253 12.3637 11.9253 12.394 11.9223 12.424C11.9252 12.4849 11.9136 12.5455 11.8884 12.601C11.8633 12.6564 11.8254 12.7051 11.7778 12.7431C11.6754 12.8191 11.5499 12.8574 11.4225 12.8515H10.5313V16.019C10.5349 16.0864 10.5245 16.1539 10.5007 16.2171C10.4768 16.2804 10.4401 16.338 10.3928 16.3863C10.3475 16.4325 10.293 16.4686 10.2328 16.4925C10.1727 16.5163 10.1082 16.5273 10.0436 16.5248C9.93047 16.528 9.81977 16.4918 9.73043 16.4224C9.64537 16.3546 9.58764 16.2584 9.56785 16.1514C9.5619 16.1075 9.5619 16.0629 9.56785 16.019L9.56182 12.8515Z" fill="#FEE500"/>
</svg>
