<svg width="150" height="150" viewBox="0 0 150 150" fill="none" xmlns="http://www.w3.org/2000/svg">
<g clip-path="url(#clip0_609_132)">
<g clip-path="url(#clip1_609_132)">
<path d="M27.8672 26.3004C32.5297 30.0879 34.2797 29.8004 43.0422 29.2129L125.636 24.2567C127.386 24.2567 125.93 22.5067 125.348 22.2192L111.623 12.3004C108.998 10.2629 105.492 7.9254 98.7797 8.50665L18.8109 14.3442C15.8984 14.6317 15.3109 16.0942 16.4734 17.2567L27.8672 26.3004ZM32.8234 45.5504V132.45C32.8234 137.119 35.1547 138.869 40.4109 138.575L131.18 133.325C136.436 133.038 137.023 129.825 137.023 126.032V39.7129C137.023 35.9254 135.567 33.8817 132.348 34.1692L37.4922 39.7129C33.9922 40.0067 32.8234 41.7567 32.8234 45.5442V45.5504ZM122.43 50.2067C123.011 52.8317 122.43 55.4567 119.805 55.7567L115.43 56.6317V120.782C111.63 122.825 108.13 123.994 105.211 123.994C100.536 123.994 99.3672 122.532 95.8672 118.163L67.2609 73.2504V116.7L76.3109 118.75C76.3109 118.75 76.3109 124 69.0109 124L48.8734 125.163C48.2922 124 48.8734 121.082 50.9172 120.5L56.1672 119.044V61.5879L48.8859 61.0004C48.2984 58.3754 49.7609 54.5879 53.8422 54.2942L75.4422 52.8379L105.217 98.3317V58.0817L97.6234 57.2129C97.0422 54.0004 99.3734 51.6692 102.292 51.3817L122.43 50.2067ZM12.0984 6.46915L95.2859 0.344153C105.498 -0.530847 108.13 0.0504029 114.548 4.71915L141.105 23.3817C145.48 26.5879 146.942 27.4629 146.942 30.9629V133.325C146.942 139.738 144.611 143.538 136.442 144.113L39.8297 149.95C33.7047 150.244 30.7797 149.369 27.5672 145.282L8.01094 119.907C4.51094 115.238 3.05469 111.744 3.05469 107.657V16.6692C3.05469 11.4254 5.39219 7.04415 12.0984 6.46915V6.46915Z" fill="black"/>
<path d="M27.8672 26.3004C32.5297 30.0879 34.2797 29.8004 43.0422 29.2129L125.636 24.2567C127.386 24.2567 125.93 22.5067 125.348 22.2192L111.623 12.3004C108.998 10.2629 105.492 7.9254 98.7797 8.50665L18.8109 14.3442C15.8984 14.6317 15.3109 16.0942 16.4734 17.2567L27.8672 26.3004Z" fill="white"/>
<path fill-rule="evenodd" clip-rule="evenodd" d="M32.8234 45.5504V132.45C32.8234 137.119 35.1547 138.869 40.4109 138.575L131.18 133.325C136.436 133.038 137.023 129.825 137.023 126.032V39.7129C137.023 35.9254 135.567 33.8817 132.348 34.1692L37.4922 39.7129C33.9922 40.0067 32.8234 41.7567 32.8234 45.5442V45.5504ZM119.805 55.7567C122.43 55.4567 123.011 52.8317 122.43 50.2067L102.292 51.3817C99.3734 51.6692 97.0422 54.0004 97.6234 57.2129L105.217 58.0817V98.3317L75.4422 52.8379L53.8422 54.2942C49.7609 54.5879 48.2984 58.3754 48.8859 61.0004L56.1672 61.5879V119.044L50.9172 120.5C48.8734 121.082 48.2922 124 48.8734 125.163L69.0109 124C76.3109 124 76.3109 118.75 76.3109 118.75L67.2609 116.7V73.2504L95.8672 118.163L95.8738 118.171C99.3687 122.533 100.539 123.994 105.211 123.994C108.13 123.994 111.63 122.825 115.43 120.782V56.6317L119.805 55.7567Z" fill="white"/>
</g>
</g>
<defs>
<clipPath id="clip0_609_132">
<rect width="150" height="150" fill="white"/>
</clipPath>
<clipPath id="clip1_609_132">
<rect width="150" height="150" fill="white"/>
</clipPath>
</defs>
</svg>
