<svg width="896" height="896" viewBox="0 0 896 896" fill="none" xmlns="http://www.w3.org/2000/svg">
<path d="M764.784 131.215C848.8 215.232 896 329.182 896 447.999C896 566.816 848.8 680.767 764.784 764.783C680.768 848.799 566.817 895.999 448 895.999C329.183 895.999 215.232 848.799 131.216 764.783C47.1999 680.767 2.07292e-05 566.816 2.07292e-05 447.999C2.07292e-05 329.182 47.1999 215.232 131.216 131.215C215.232 47.1992 329.183 -0.000695125 448 -0.000695125C566.817 -0.000695125 680.768 47.1992 764.784 131.215ZM486.421 409.578V262.409C486.421 252.219 482.373 242.447 475.168 235.241C467.963 228.036 458.19 223.988 448 223.988C437.81 223.988 428.037 228.036 420.832 235.241C413.627 242.447 409.579 252.219 409.579 262.409V409.578L262.41 409.578C257.364 409.578 252.368 410.572 247.707 412.503C243.045 414.433 238.81 417.264 235.242 420.831C231.674 424.399 228.844 428.635 226.913 433.296C224.982 437.958 223.989 442.954 223.989 447.999C223.989 453.045 224.982 458.041 226.913 462.703C228.844 467.364 231.674 471.6 235.242 475.167C238.81 478.735 243.045 481.565 247.707 483.496C252.368 485.427 257.364 486.421 262.41 486.421L409.579 486.421V633.589C409.579 638.635 410.572 643.631 412.503 648.293C414.434 652.954 417.264 657.19 420.832 660.757C424.4 664.325 428.635 667.155 433.297 669.086C437.958 671.017 442.954 672.011 448 672.011C453.046 672.011 458.042 671.017 462.703 669.086C467.365 667.155 471.6 664.325 475.168 660.757C478.736 657.19 481.566 652.954 483.497 648.293C485.428 643.631 486.421 638.635 486.421 633.589V486.421L633.59 486.421C638.636 486.421 643.632 485.427 648.293 483.496C652.955 481.565 657.19 478.735 660.758 475.167C664.326 471.6 667.156 467.364 669.087 462.703C671.018 458.041 672.011 453.045 672.011 447.999C672.011 442.954 671.018 437.958 669.087 433.296C667.156 428.635 664.326 424.399 660.758 420.831C657.19 417.264 652.955 414.433 648.293 412.503C643.632 410.572 638.636 409.578 633.59 409.578L486.421 409.578Z" fill="black"/>
</svg>
