<svg width="30" height="30" viewBox="0 0 30 30" fill="none" xmlns="http://www.w3.org/2000/svg">
<rect width="30" height="30" rx="15" fill="#EB531F"/>
<path d="M8.00391 10.748C8.00391 11.2122 8.18828 11.6573 8.51647 11.9855C8.84466 12.3137 9.28978 12.498 9.75391 12.498C10.218 12.498 10.6632 12.3137 10.9913 11.9855C11.3195 11.6573 11.5039 11.2122 11.5039 10.748C11.5039 10.2839 11.3195 9.8388 10.9913 9.51061C10.6632 9.18242 10.218 8.99805 9.75391 8.99805C9.28978 8.99805 8.84466 9.18242 8.51647 9.51061C8.18828 9.8388 8.00391 10.2839 8.00391 10.748ZM13.2539 21.248C13.2539 21.7122 13.4383 22.1573 13.7665 22.4855C14.0947 22.8137 14.5398 22.998 15.0039 22.998C15.468 22.998 15.9132 22.8137 16.2413 22.4855C16.5695 22.1573 16.7539 21.7122 16.7539 21.248C16.7539 20.7839 16.5695 20.3388 16.2413 20.0106C15.9132 19.6824 15.468 19.498 15.0039 19.498C14.5398 19.498 14.0947 19.6824 13.7665 20.0106C13.4383 20.3388 13.2539 20.7839 13.2539 21.248ZM13.2539 15.998C13.2539 16.4622 13.4383 16.9073 13.7665 17.2355C14.0947 17.5637 14.5398 17.748 15.0039 17.748C15.468 17.748 15.9132 17.5637 16.2413 17.2355C16.5695 16.9073 16.7539 16.4622 16.7539 15.998C16.7539 15.5339 16.5695 15.0888 16.2413 14.7606C15.9132 14.4324 15.468 14.248 15.0039 14.248C14.5398 14.248 14.0947 14.4324 13.7665 14.7606C13.4383 15.0888 13.2539 15.5339 13.2539 15.998ZM13.2539 10.748C13.2539 11.2122 13.4383 11.6573 13.7665 11.9855C14.0947 12.3137 14.5398 12.498 15.0039 12.498C15.468 12.498 15.9132 12.3137 16.2413 11.9855C16.5695 11.6573 16.7539 11.2122 16.7539 10.748C16.7539 10.2839 16.5695 9.8388 16.2413 9.51061C15.9132 9.18242 15.468 8.99805 15.0039 8.99805C14.5398 8.99805 14.0947 9.18242 13.7665 9.51061C13.4383 9.8388 13.2539 10.2839 13.2539 10.748ZM18.5039 10.748C18.5039 11.2122 18.6883 11.6573 19.0165 11.9855C19.3447 12.3137 19.7898 12.498 20.2539 12.498C20.718 12.498 21.1632 12.3137 21.4913 11.9855C21.8195 11.6573 22.0039 11.2122 22.0039 10.748C22.0039 10.2839 21.8195 9.8388 21.4913 9.51061C21.1632 9.18242 20.718 8.99805 20.2539 8.99805C19.7898 8.99805 19.3447 9.18242 19.0165 9.51061C18.6883 9.8388 18.5039 10.2839 18.5039 10.748Z" fill="white"/>
</svg>
